solid ascii
  facet normal 1.000000e+000 0.000000e+000 0.000000e+000
    outer loop
      vertex   -1.400000e+002 1.650000e+002 0.000000e+000
      vertex   -1.400000e+002 1.500000e+002 0.000000e+000
      vertex   -1.400000e+002 1.650000e+002 -3.050000e+001
    endloop
  endfacet
  facet normal 1.000000e+000 0.000000e+000 0.000000e+000
    outer loop
      vertex   -1.400000e+002 1.650000e+002 -3.050000e+001
      vertex   -1.400000e+002 1.500000e+002 0.000000e+000
      vertex   -1.400000e+002 1.500000e+002 -3.050000e+001
    endloop
  endfacet
  facet normal 0.000000e+000 0.000000e+000 -1.000000e+000
    outer loop
      vertex   -1.450000e+002 1.650000e+002 -3.050000e+001
      vertex   -1.400000e+002 1.650000e+002 -3.050000e+001
      vertex   -1.450000e+002 1.500000e+002 -3.050000e+001
    endloop
  endfacet
  facet normal 0.000000e+000 0.000000e+000 -1.000000e+000
    outer loop
      vertex   -1.450000e+002 1.500000e+002 -3.050000e+001
      vertex   -1.400000e+002 1.650000e+002 -3.050000e+001
      vertex   -1.400000e+002 1.500000e+002 -3.050000e+001
    endloop
  endfacet
  facet normal 0.000000e+000 -0.000000e+000 -1.000000e+000
    outer loop
      vertex   -1.315000e+002 1.590000e+002 0.000000e+000
      vertex   -1.315000e+002 1.560000e+002 0.000000e+000
      vertex   -1.400000e+002 1.500000e+002 0.000000e+000
    endloop
  endfacet
  facet normal 0.000000e+000 0.000000e+000 -1.000000e+000
    outer loop
      vertex   -1.400000e+002 1.500000e+002 0.000000e+000
      vertex   -1.315000e+002 1.560000e+002 0.000000e+000
      vertex   -1.314891e+002 1.558192e+002 0.000000e+000
    endloop
  endfacet
  facet normal 0.000000e+000 0.000000e+000 -1.000000e+000
    outer loop
      vertex   -1.400000e+002 1.500000e+002 0.000000e+000
      vertex   -1.314891e+002 1.558192e+002 0.000000e+000
      vertex   -1.314564e+002 1.556410e+002 0.000000e+000
    endloop
  endfacet
  facet normal 0.000000e+000 -0.000000e+000 -1.000000e+000
    outer loop
      vertex   -1.314564e+002 1.556410e+002 0.000000e+000
      vertex   -1.314025e+002 1.554681e+002 0.000000e+000
      vertex   -1.400000e+002 1.500000e+002 0.000000e+000
    endloop
  endfacet
  facet normal 0.000000e+000 0.000000e+000 -1.000000e+000
    outer loop
      vertex   -1.400000e+002 1.500000e+002 0.000000e+000
      vertex   -1.314025e+002 1.554681e+002 0.000000e+000
      vertex   -1.313282e+002 1.553029e+002 0.000000e+000
    endloop
  endfacet
  facet normal 0.000000e+000 0.000000e+000 -1.000000e+000
    outer loop
      vertex   -1.400000e+002 1.500000e+002 0.000000e+000
      vertex   -1.313282e+002 1.553029e+002 0.000000e+000
      vertex   -1.312345e+002 1.551479e+002 0.000000e+000
    endloop
  endfacet
  facet normal 0.000000e+000 -0.000000e+000 -1.000000e+000
    outer loop
      vertex   -1.312345e+002 1.551479e+002 0.000000e+000
      vertex   -1.311228e+002 1.550053e+002 0.000000e+000
      vertex   -1.400000e+002 1.500000e+002 0.000000e+000
    endloop
  endfacet
  facet normal 0.000000e+000 0.000000e+000 -1.000000e+000
    outer loop
      vertex   -1.400000e+002 1.500000e+002 0.000000e+000
      vertex   -1.311228e+002 1.550053e+002 0.000000e+000
      vertex   -1.309947e+002 1.548772e+002 0.000000e+000
    endloop
  endfacet
  facet normal 0.000000e+000 0.000000e+000 -1.000000e+000
    outer loop
      vertex   -1.400000e+002 1.500000e+002 0.000000e+000
      vertex   -1.309947e+002 1.548772e+002 0.000000e+000
      vertex   -1.308521e+002 1.547655e+002 0.000000e+000
    endloop
  endfacet
  facet normal 0.000000e+000 -0.000000e+000 -1.000000e+000
    outer loop
      vertex   -1.308521e+002 1.547655e+002 0.000000e+000
      vertex   -1.306971e+002 1.546718e+002 0.000000e+000
      vertex   -1.400000e+002 1.500000e+002 0.000000e+000
    endloop
  endfacet
  facet normal 0.000000e+000 0.000000e+000 -1.000000e+000
    outer loop
      vertex   -1.400000e+002 1.500000e+002 0.000000e+000
      vertex   -1.306971e+002 1.546718e+002 0.000000e+000
      vertex   -1.305319e+002 1.545975e+002 0.000000e+000
    endloop
  endfacet
  facet normal 0.000000e+000 0.000000e+000 -1.000000e+000
    outer loop
      vertex   -1.400000e+002 1.500000e+002 0.000000e+000
      vertex   -1.305319e+002 1.545975e+002 0.000000e+000
      vertex   -1.303590e+002 1.545436e+002 0.000000e+000
    endloop
  endfacet
  facet normal 0.000000e+000 0.000000e+000 -1.000000e+000
    outer loop
      vertex   -1.400000e+002 1.500000e+002 0.000000e+000
      vertex   -1.303590e+002 1.545436e+002 0.000000e+000
      vertex   -1.250000e+002 1.500000e+002 0.000000e+000
    endloop
  endfacet
  facet normal 0.000000e+000 0.000000e+000 -1.000000e+000
    outer loop
      vertex   -1.250000e+002 1.500000e+002 0.000000e+000
      vertex   -1.303590e+002 1.545436e+002 0.000000e+000
      vertex   -1.301808e+002 1.545109e+002 0.000000e+000
    endloop
  endfacet
  facet normal 0.000000e+000 0.000000e+000 -1.000000e+000
    outer loop
      vertex   -1.250000e+002 1.500000e+002 0.000000e+000
      vertex   -1.301808e+002 1.545109e+002 0.000000e+000
      vertex   -1.300000e+002 1.545000e+002 0.000000e+000
    endloop
  endfacet
  facet normal 0.000000e+000 0.000000e+000 -1.000000e+000
    outer loop
      vertex   -1.300000e+002 1.545000e+002 0.000000e+000
      vertex   -1.298192e+002 1.545109e+002 0.000000e+000
      vertex   -1.250000e+002 1.500000e+002 0.000000e+000
    endloop
  endfacet
  facet normal 0.000000e+000 0.000000e+000 -1.000000e+000
    outer loop
      vertex   -1.250000e+002 1.500000e+002 0.000000e+000
      vertex   -1.298192e+002 1.545109e+002 0.000000e+000
      vertex   -1.296410e+002 1.545436e+002 0.000000e+000
    endloop
  endfacet
  facet normal 0.000000e+000 0.000000e+000 -1.000000e+000
    outer loop
      vertex   -1.250000e+002 1.500000e+002 0.000000e+000
      vertex   -1.296410e+002 1.545436e+002 0.000000e+000
      vertex   -1.294681e+002 1.545975e+002 0.000000e+000
    endloop
  endfacet
  facet normal 0.000000e+000 0.000000e+000 -1.000000e+000
    outer loop
      vertex   -1.294681e+002 1.545975e+002 0.000000e+000
      vertex   -1.293029e+002 1.546718e+002 0.000000e+000
      vertex   -1.250000e+002 1.500000e+002 0.000000e+000
    endloop
  endfacet
  facet normal 0.000000e+000 0.000000e+000 -1.000000e+000
    outer loop
      vertex   -1.250000e+002 1.500000e+002 0.000000e+000
      vertex   -1.293029e+002 1.546718e+002 0.000000e+000
      vertex   -1.291479e+002 1.547655e+002 0.000000e+000
    endloop
  endfacet
  facet normal 0.000000e+000 0.000000e+000 -1.000000e+000
    outer loop
      vertex   -1.250000e+002 1.500000e+002 0.000000e+000
      vertex   -1.291479e+002 1.547655e+002 0.000000e+000
      vertex   -1.290053e+002 1.548772e+002 0.000000e+000
    endloop
  endfacet
  facet normal 0.000000e+000 0.000000e+000 -1.000000e+000
    outer loop
      vertex   -1.290053e+002 1.548772e+002 0.000000e+000
      vertex   -1.288772e+002 1.550053e+002 0.000000e+000
      vertex   -1.250000e+002 1.500000e+002 0.000000e+000
    endloop
  endfacet
  facet normal 0.000000e+000 0.000000e+000 -1.000000e+000
    outer loop
      vertex   -1.250000e+002 1.500000e+002 0.000000e+000
      vertex   -1.288772e+002 1.550053e+002 0.000000e+000
      vertex   -1.287655e+002 1.551479e+002 0.000000e+000
    endloop
  endfacet
  facet normal 0.000000e+000 0.000000e+000 -1.000000e+000
    outer loop
      vertex   -1.250000e+002 1.500000e+002 0.000000e+000
      vertex   -1.287655e+002 1.551479e+002 0.000000e+000
      vertex   -1.286718e+002 1.553029e+002 0.000000e+000
    endloop
  endfacet
  facet normal 0.000000e+000 0.000000e+000 -1.000000e+000
    outer loop
      vertex   -1.286718e+002 1.553029e+002 0.000000e+000
      vertex   -1.285975e+002 1.554681e+002 0.000000e+000
      vertex   -1.250000e+002 1.500000e+002 0.000000e+000
    endloop
  endfacet
  facet normal 0.000000e+000 0.000000e+000 -1.000000e+000
    outer loop
      vertex   -1.250000e+002 1.500000e+002 0.000000e+000
      vertex   -1.285975e+002 1.554681e+002 0.000000e+000
      vertex   -1.285436e+002 1.556410e+002 0.000000e+000
    endloop
  endfacet
  facet normal 0.000000e+000 0.000000e+000 -1.000000e+000
    outer loop
      vertex   -1.250000e+002 1.500000e+002 0.000000e+000
      vertex   -1.285436e+002 1.556410e+002 0.000000e+000
      vertex   -1.285109e+002 1.558192e+002 0.000000e+000
    endloop
  endfacet
  facet normal 0.000000e+000 0.000000e+000 -1.000000e+000
    outer loop
      vertex   -1.285109e+002 1.558192e+002 0.000000e+000
      vertex   -1.285000e+002 1.560000e+002 0.000000e+000
      vertex   -1.250000e+002 1.500000e+002 0.000000e+000
    endloop
  endfacet
  facet normal 0.000000e+000 0.000000e+000 -1.000000e+000
    outer loop
      vertex   -1.250000e+002 1.500000e+002 0.000000e+000
      vertex   -1.285000e+002 1.560000e+002 0.000000e+000
      vertex   -1.285000e+002 1.590000e+002 0.000000e+000
    endloop
  endfacet
  facet normal 0.000000e+000 0.000000e+000 -1.000000e+000
    outer loop
      vertex   -1.250000e+002 1.500000e+002 0.000000e+000
      vertex   -1.285000e+002 1.590000e+002 0.000000e+000
      vertex   -1.250000e+002 1.650000e+002 0.000000e+000
    endloop
  endfacet
  facet normal 0.000000e+000 0.000000e+000 -1.000000e+000
    outer loop
      vertex   -1.250000e+002 1.650000e+002 0.000000e+000
      vertex   -1.285000e+002 1.590000e+002 0.000000e+000
      vertex   -1.285109e+002 1.591808e+002 0.000000e+000
    endloop
  endfacet
  facet normal 0.000000e+000 0.000000e+000 -1.000000e+000
    outer loop
      vertex   -1.250000e+002 1.650000e+002 0.000000e+000
      vertex   -1.285109e+002 1.591808e+002 0.000000e+000
      vertex   -1.285436e+002 1.593590e+002 0.000000e+000
    endloop
  endfacet
  facet normal 0.000000e+000 0.000000e+000 -1.000000e+000
    outer loop
      vertex   -1.285436e+002 1.593590e+002 0.000000e+000
      vertex   -1.285975e+002 1.595319e+002 0.000000e+000
      vertex   -1.250000e+002 1.650000e+002 0.000000e+000
    endloop
  endfacet
  facet normal 0.000000e+000 0.000000e+000 -1.000000e+000
    outer loop
      vertex   -1.250000e+002 1.650000e+002 0.000000e+000
      vertex   -1.285975e+002 1.595319e+002 0.000000e+000
      vertex   -1.286718e+002 1.596971e+002 0.000000e+000
    endloop
  endfacet
  facet normal 0.000000e+000 0.000000e+000 -1.000000e+000
    outer loop
      vertex   -1.250000e+002 1.650000e+002 0.000000e+000
      vertex   -1.286718e+002 1.596971e+002 0.000000e+000
      vertex   -1.287655e+002 1.598521e+002 0.000000e+000
    endloop
  endfacet
  facet normal 0.000000e+000 0.000000e+000 -1.000000e+000
    outer loop
      vertex   -1.287655e+002 1.598521e+002 0.000000e+000
      vertex   -1.288772e+002 1.599947e+002 0.000000e+000
      vertex   -1.250000e+002 1.650000e+002 0.000000e+000
    endloop
  endfacet
  facet normal 0.000000e+000 0.000000e+000 -1.000000e+000
    outer loop
      vertex   -1.250000e+002 1.650000e+002 0.000000e+000
      vertex   -1.288772e+002 1.599947e+002 0.000000e+000
      vertex   -1.290053e+002 1.601228e+002 0.000000e+000
    endloop
  endfacet
  facet normal 0.000000e+000 0.000000e+000 -1.000000e+000
    outer loop
      vertex   -1.250000e+002 1.650000e+002 0.000000e+000
      vertex   -1.290053e+002 1.601228e+002 0.000000e+000
      vertex   -1.291479e+002 1.602345e+002 0.000000e+000
    endloop
  endfacet
  facet normal 0.000000e+000 0.000000e+000 -1.000000e+000
    outer loop
      vertex   -1.291479e+002 1.602345e+002 0.000000e+000
      vertex   -1.293029e+002 1.603282e+002 0.000000e+000
      vertex   -1.250000e+002 1.650000e+002 0.000000e+000
    endloop
  endfacet
  facet normal 0.000000e+000 0.000000e+000 -1.000000e+000
    outer loop
      vertex   -1.250000e+002 1.650000e+002 0.000000e+000
      vertex   -1.293029e+002 1.603282e+002 0.000000e+000
      vertex   -1.294681e+002 1.604025e+002 0.000000e+000
    endloop
  endfacet
  facet normal 0.000000e+000 0.000000e+000 -1.000000e+000
    outer loop
      vertex   -1.250000e+002 1.650000e+002 0.000000e+000
      vertex   -1.294681e+002 1.604025e+002 0.000000e+000
      vertex   -1.296410e+002 1.604564e+002 0.000000e+000
    endloop
  endfacet
  facet normal 0.000000e+000 0.000000e+000 -1.000000e+000
    outer loop
      vertex   -1.296410e+002 1.604564e+002 0.000000e+000
      vertex   -1.298192e+002 1.604891e+002 0.000000e+000
      vertex   -1.250000e+002 1.650000e+002 0.000000e+000
    endloop
  endfacet
  facet normal 0.000000e+000 0.000000e+000 -1.000000e+000
    outer loop
      vertex   -1.250000e+002 1.650000e+002 0.000000e+000
      vertex   -1.298192e+002 1.604891e+002 0.000000e+000
      vertex   -1.300000e+002 1.605000e+002 0.000000e+000
    endloop
  endfacet
  facet normal 0.000000e+000 0.000000e+000 -1.000000e+000
    outer loop
      vertex   -1.250000e+002 1.650000e+002 0.000000e+000
      vertex   -1.300000e+002 1.605000e+002 0.000000e+000
      vertex   -1.301808e+002 1.604891e+002 0.000000e+000
    endloop
  endfacet
  facet normal -0.000000e+000 0.000000e+000 -1.000000e+000
    outer loop
      vertex   -1.301808e+002 1.604891e+002 0.000000e+000
      vertex   -1.303590e+002 1.604564e+002 0.000000e+000
      vertex   -1.250000e+002 1.650000e+002 0.000000e+000
    endloop
  endfacet
  facet normal -0.000000e+000 0.000000e+000 -1.000000e+000
    outer loop
      vertex   -1.250000e+002 1.650000e+002 0.000000e+000
      vertex   -1.303590e+002 1.604564e+002 0.000000e+000
      vertex   -1.400000e+002 1.650000e+002 0.000000e+000
    endloop
  endfacet
  facet normal 0.000000e+000 0.000000e+000 -1.000000e+000
    outer loop
      vertex   -1.400000e+002 1.650000e+002 0.000000e+000
      vertex   -1.303590e+002 1.604564e+002 0.000000e+000
      vertex   -1.305319e+002 1.604025e+002 0.000000e+000
    endloop
  endfacet
  facet normal 0.000000e+000 0.000000e+000 -1.000000e+000
    outer loop
      vertex   -1.400000e+002 1.650000e+002 0.000000e+000
      vertex   -1.305319e+002 1.604025e+002 0.000000e+000
      vertex   -1.306971e+002 1.603282e+002 0.000000e+000
    endloop
  endfacet
  facet normal -0.000000e+000 0.000000e+000 -1.000000e+000
    outer loop
      vertex   -1.306971e+002 1.603282e+002 0.000000e+000
      vertex   -1.308521e+002 1.602345e+002 0.000000e+000
      vertex   -1.400000e+002 1.650000e+002 0.000000e+000
    endloop
  endfacet
  facet normal 0.000000e+000 0.000000e+000 -1.000000e+000
    outer loop
      vertex   -1.400000e+002 1.650000e+002 0.000000e+000
      vertex   -1.308521e+002 1.602345e+002 0.000000e+000
      vertex   -1.309947e+002 1.601228e+002 0.000000e+000
    endloop
  endfacet
  facet normal 0.000000e+000 0.000000e+000 -1.000000e+000
    outer loop
      vertex   -1.400000e+002 1.650000e+002 0.000000e+000
      vertex   -1.309947e+002 1.601228e+002 0.000000e+000
      vertex   -1.311228e+002 1.599947e+002 0.000000e+000
    endloop
  endfacet
  facet normal -0.000000e+000 0.000000e+000 -1.000000e+000
    outer loop
      vertex   -1.311228e+002 1.599947e+002 0.000000e+000
      vertex   -1.312345e+002 1.598521e+002 0.000000e+000
      vertex   -1.400000e+002 1.650000e+002 0.000000e+000
    endloop
  endfacet
  facet normal 0.000000e+000 0.000000e+000 -1.000000e+000
    outer loop
      vertex   -1.400000e+002 1.650000e+002 0.000000e+000
      vertex   -1.312345e+002 1.598521e+002 0.000000e+000
      vertex   -1.313282e+002 1.596971e+002 0.000000e+000
    endloop
  endfacet
  facet normal 0.000000e+000 0.000000e+000 -1.000000e+000
    outer loop
      vertex   -1.400000e+002 1.650000e+002 0.000000e+000
      vertex   -1.313282e+002 1.596971e+002 0.000000e+000
      vertex   -1.314025e+002 1.595319e+002 0.000000e+000
    endloop
  endfacet
  facet normal -0.000000e+000 0.000000e+000 -1.000000e+000
    outer loop
      vertex   -1.314025e+002 1.595319e+002 0.000000e+000
      vertex   -1.314564e+002 1.593590e+002 0.000000e+000
      vertex   -1.400000e+002 1.650000e+002 0.000000e+000
    endloop
  endfacet
  facet normal 0.000000e+000 0.000000e+000 -1.000000e+000
    outer loop
      vertex   -1.400000e+002 1.650000e+002 0.000000e+000
      vertex   -1.314564e+002 1.593590e+002 0.000000e+000
      vertex   -1.314891e+002 1.591808e+002 0.000000e+000
    endloop
  endfacet
  facet normal 0.000000e+000 0.000000e+000 -1.000000e+000
    outer loop
      vertex   -1.400000e+002 1.650000e+002 0.000000e+000
      vertex   -1.314891e+002 1.591808e+002 0.000000e+000
      vertex   -1.315000e+002 1.590000e+002 0.000000e+000
    endloop
  endfacet
  facet normal 0.000000e+000 0.000000e+000 -1.000000e+000
    outer loop
      vertex   -1.400000e+002 1.650000e+002 0.000000e+000
      vertex   -1.315000e+002 1.590000e+002 0.000000e+000
      vertex   -1.400000e+002 1.500000e+002 0.000000e+000
    endloop
  endfacet
  facet normal -1.000000e+000 0.000000e+000 0.000000e+000
    outer loop
      vertex   -1.285000e+002 1.590000e+002 0.000000e+000
      vertex   -1.285000e+002 1.560000e+002 0.000000e+000
      vertex   -1.285000e+002 1.590000e+002 4.000000e+000
    endloop
  endfacet
  facet normal -1.000000e+000 -0.000000e+000 0.000000e+000
    outer loop
      vertex   -1.285000e+002 1.590000e+002 4.000000e+000
      vertex   -1.285000e+002 1.560000e+002 0.000000e+000
      vertex   -1.285000e+002 1.560000e+002 4.000000e+000
    endloop
  endfacet
  facet normal 9.981742e-001 -6.040096e-002 0.000000e+000
    outer loop
      vertex   -1.315000e+002 1.590000e+002 4.000000e+000
      vertex   -1.315000e+002 1.590000e+002 0.000000e+000
      vertex   -1.314891e+002 1.591808e+002 4.000000e+000
    endloop
  endfacet
  facet normal 9.981742e-001 -6.040096e-002 0.000000e+000
    outer loop
      vertex   -1.314891e+002 1.591808e+002 4.000000e+000
      vertex   -1.315000e+002 1.590000e+002 0.000000e+000
      vertex   -1.314891e+002 1.591808e+002 0.000000e+000
    endloop
  endfacet
  facet normal 9.836183e-001 -1.802640e-001 0.000000e+000
    outer loop
      vertex   -1.314891e+002 1.591808e+002 4.000000e+000
      vertex   -1.314891e+002 1.591808e+002 0.000000e+000
      vertex   -1.314564e+002 1.593590e+002 4.000000e+000
    endloop
  endfacet
  facet normal 9.836183e-001 -1.802640e-001 0.000000e+000
    outer loop
      vertex   -1.314564e+002 1.593590e+002 4.000000e+000
      vertex   -1.314891e+002 1.591808e+002 0.000000e+000
      vertex   -1.314564e+002 1.593590e+002 0.000000e+000
    endloop
  endfacet
  facet normal 9.547330e-001 -2.974642e-001 0.000000e+000
    outer loop
      vertex   -1.314564e+002 1.593590e+002 4.000000e+000
      vertex   -1.314564e+002 1.593590e+002 0.000000e+000
      vertex   -1.314025e+002 1.595319e+002 4.000000e+000
    endloop
  endfacet
  facet normal 9.547330e-001 -2.974642e-001 0.000000e+000
    outer loop
      vertex   -1.314025e+002 1.595319e+002 4.000000e+000
      vertex   -1.314564e+002 1.593590e+002 0.000000e+000
      vertex   -1.314025e+002 1.595319e+002 0.000000e+000
    endloop
  endfacet
  facet normal 9.118978e-001 -4.104172e-001 0.000000e+000
    outer loop
      vertex   -1.314025e+002 1.595319e+002 4.000000e+000
      vertex   -1.314025e+002 1.595319e+002 0.000000e+000
      vertex   -1.313282e+002 1.596971e+002 4.000000e+000
    endloop
  endfacet
  facet normal 9.118978e-001 -4.104172e-001 0.000000e+000
    outer loop
      vertex   -1.313282e+002 1.596971e+002 4.000000e+000
      vertex   -1.314025e+002 1.595319e+002 0.000000e+000
      vertex   -1.313282e+002 1.596971e+002 0.000000e+000
    endloop
  endfacet
  facet normal 8.557935e-001 -5.173175e-001 0.000000e+000
    outer loop
      vertex   -1.313282e+002 1.596971e+002 4.000000e+000
      vertex   -1.313282e+002 1.596971e+002 0.000000e+000
      vertex   -1.312345e+002 1.598521e+002 4.000000e+000
    endloop
  endfacet
  facet normal 8.557935e-001 -5.173175e-001 0.000000e+000
    outer loop
      vertex   -1.312345e+002 1.598521e+002 4.000000e+000
      vertex   -1.313282e+002 1.596971e+002 0.000000e+000
      vertex   -1.312345e+002 1.598521e+002 0.000000e+000
    endloop
  endfacet
  facet normal 7.871974e-001 -6.167011e-001 0.000000e+000
    outer loop
      vertex   -1.312345e+002 1.598521e+002 4.000000e+000
      vertex   -1.312345e+002 1.598521e+002 0.000000e+000
      vertex   -1.311228e+002 1.599947e+002 4.000000e+000
    endloop
  endfacet
  facet normal 7.871974e-001 -6.167011e-001 0.000000e+000
    outer loop
      vertex   -1.311228e+002 1.599947e+002 4.000000e+000
      vertex   -1.312345e+002 1.598521e+002 0.000000e+000
      vertex   -1.311228e+002 1.599947e+002 0.000000e+000
    endloop
  endfacet
  facet normal 7.071068e-001 -7.071068e-001 0.000000e+000
    outer loop
      vertex   -1.311228e+002 1.599947e+002 4.000000e+000
      vertex   -1.311228e+002 1.599947e+002 0.000000e+000
      vertex   -1.309947e+002 1.601228e+002 4.000000e+000
    endloop
  endfacet
  facet normal 7.071068e-001 -7.071068e-001 0.000000e+000
    outer loop
      vertex   -1.309947e+002 1.601228e+002 4.000000e+000
      vertex   -1.311228e+002 1.599947e+002 0.000000e+000
      vertex   -1.309947e+002 1.601228e+002 0.000000e+000
    endloop
  endfacet
  facet normal 6.167011e-001 -7.871974e-001 0.000000e+000
    outer loop
      vertex   -1.309947e+002 1.601228e+002 4.000000e+000
      vertex   -1.309947e+002 1.601228e+002 0.000000e+000
      vertex   -1.308521e+002 1.602345e+002 4.000000e+000
    endloop
  endfacet
  facet normal 6.167011e-001 -7.871974e-001 0.000000e+000
    outer loop
      vertex   -1.308521e+002 1.602345e+002 4.000000e+000
      vertex   -1.309947e+002 1.601228e+002 0.000000e+000
      vertex   -1.308521e+002 1.602345e+002 0.000000e+000
    endloop
  endfacet
  facet normal 5.173175e-001 -8.557935e-001 0.000000e+000
    outer loop
      vertex   -1.308521e+002 1.602345e+002 4.000000e+000
      vertex   -1.308521e+002 1.602345e+002 0.000000e+000
      vertex   -1.306971e+002 1.603282e+002 4.000000e+000
    endloop
  endfacet
  facet normal 5.173175e-001 -8.557935e-001 0.000000e+000
    outer loop
      vertex   -1.306971e+002 1.603282e+002 4.000000e+000
      vertex   -1.308521e+002 1.602345e+002 0.000000e+000
      vertex   -1.306971e+002 1.603282e+002 0.000000e+000
    endloop
  endfacet
  facet normal 4.104172e-001 -9.118978e-001 0.000000e+000
    outer loop
      vertex   -1.306971e+002 1.603282e+002 4.000000e+000
      vertex   -1.306971e+002 1.603282e+002 0.000000e+000
      vertex   -1.305319e+002 1.604025e+002 4.000000e+000
    endloop
  endfacet
  facet normal 4.104172e-001 -9.118978e-001 0.000000e+000
    outer loop
      vertex   -1.305319e+002 1.604025e+002 4.000000e+000
      vertex   -1.306971e+002 1.603282e+002 0.000000e+000
      vertex   -1.305319e+002 1.604025e+002 0.000000e+000
    endloop
  endfacet
  facet normal 2.974642e-001 -9.547330e-001 0.000000e+000
    outer loop
      vertex   -1.305319e+002 1.604025e+002 4.000000e+000
      vertex   -1.305319e+002 1.604025e+002 0.000000e+000
      vertex   -1.303590e+002 1.604564e+002 4.000000e+000
    endloop
  endfacet
  facet normal 2.974642e-001 -9.547330e-001 0.000000e+000
    outer loop
      vertex   -1.303590e+002 1.604564e+002 4.000000e+000
      vertex   -1.305319e+002 1.604025e+002 0.000000e+000
      vertex   -1.303590e+002 1.604564e+002 0.000000e+000
    endloop
  endfacet
  facet normal 1.802640e-001 -9.836183e-001 0.000000e+000
    outer loop
      vertex   -1.303590e+002 1.604564e+002 4.000000e+000
      vertex   -1.303590e+002 1.604564e+002 0.000000e+000
      vertex   -1.301808e+002 1.604891e+002 4.000000e+000
    endloop
  endfacet
  facet normal 1.802640e-001 -9.836183e-001 0.000000e+000
    outer loop
      vertex   -1.301808e+002 1.604891e+002 4.000000e+000
      vertex   -1.303590e+002 1.604564e+002 0.000000e+000
      vertex   -1.301808e+002 1.604891e+002 0.000000e+000
    endloop
  endfacet
  facet normal 6.040096e-002 -9.981742e-001 0.000000e+000
    outer loop
      vertex   -1.301808e+002 1.604891e+002 4.000000e+000
      vertex   -1.301808e+002 1.604891e+002 0.000000e+000
      vertex   -1.300000e+002 1.605000e+002 4.000000e+000
    endloop
  endfacet
  facet normal 6.040096e-002 -9.981742e-001 0.000000e+000
    outer loop
      vertex   -1.300000e+002 1.605000e+002 4.000000e+000
      vertex   -1.301808e+002 1.604891e+002 0.000000e+000
      vertex   -1.300000e+002 1.605000e+002 0.000000e+000
    endloop
  endfacet
  facet normal -6.040096e-002 -9.981742e-001 -0.000000e+000
    outer loop
      vertex   -1.300000e+002 1.605000e+002 4.000000e+000
      vertex   -1.300000e+002 1.605000e+002 0.000000e+000
      vertex   -1.298192e+002 1.604891e+002 4.000000e+000
    endloop
  endfacet
  facet normal -6.040096e-002 -9.981742e-001 -0.000000e+000
    outer loop
      vertex   -1.298192e+002 1.604891e+002 4.000000e+000
      vertex   -1.300000e+002 1.605000e+002 0.000000e+000
      vertex   -1.298192e+002 1.604891e+002 0.000000e+000
    endloop
  endfacet
  facet normal -1.802640e-001 -9.836183e-001 -0.000000e+000
    outer loop
      vertex   -1.298192e+002 1.604891e+002 4.000000e+000
      vertex   -1.298192e+002 1.604891e+002 0.000000e+000
      vertex   -1.296410e+002 1.604564e+002 4.000000e+000
    endloop
  endfacet
  facet normal -1.802640e-001 -9.836183e-001 -0.000000e+000
    outer loop
      vertex   -1.296410e+002 1.604564e+002 4.000000e+000
      vertex   -1.298192e+002 1.604891e+002 0.000000e+000
      vertex   -1.296410e+002 1.604564e+002 0.000000e+000
    endloop
  endfacet
  facet normal -2.974642e-001 -9.547330e-001 -0.000000e+000
    outer loop
      vertex   -1.296410e+002 1.604564e+002 4.000000e+000
      vertex   -1.296410e+002 1.604564e+002 0.000000e+000
      vertex   -1.294681e+002 1.604025e+002 4.000000e+000
    endloop
  endfacet
  facet normal -2.974642e-001 -9.547330e-001 -0.000000e+000
    outer loop
      vertex   -1.294681e+002 1.604025e+002 4.000000e+000
      vertex   -1.296410e+002 1.604564e+002 0.000000e+000
      vertex   -1.294681e+002 1.604025e+002 0.000000e+000
    endloop
  endfacet
  facet normal -4.104172e-001 -9.118978e-001 -0.000000e+000
    outer loop
      vertex   -1.294681e+002 1.604025e+002 4.000000e+000
      vertex   -1.294681e+002 1.604025e+002 0.000000e+000
      vertex   -1.293029e+002 1.603282e+002 4.000000e+000
    endloop
  endfacet
  facet normal -4.104172e-001 -9.118978e-001 -0.000000e+000
    outer loop
      vertex   -1.293029e+002 1.603282e+002 4.000000e+000
      vertex   -1.294681e+002 1.604025e+002 0.000000e+000
      vertex   -1.293029e+002 1.603282e+002 0.000000e+000
    endloop
  endfacet
  facet normal -5.173175e-001 -8.557935e-001 -0.000000e+000
    outer loop
      vertex   -1.293029e+002 1.603282e+002 4.000000e+000
      vertex   -1.293029e+002 1.603282e+002 0.000000e+000
      vertex   -1.291479e+002 1.602345e+002 4.000000e+000
    endloop
  endfacet
  facet normal -5.173175e-001 -8.557935e-001 -0.000000e+000
    outer loop
      vertex   -1.291479e+002 1.602345e+002 4.000000e+000
      vertex   -1.293029e+002 1.603282e+002 0.000000e+000
      vertex   -1.291479e+002 1.602345e+002 0.000000e+000
    endloop
  endfacet
  facet normal -6.167011e-001 -7.871974e-001 -0.000000e+000
    outer loop
      vertex   -1.291479e+002 1.602345e+002 4.000000e+000
      vertex   -1.291479e+002 1.602345e+002 0.000000e+000
      vertex   -1.290053e+002 1.601228e+002 4.000000e+000
    endloop
  endfacet
  facet normal -6.167011e-001 -7.871974e-001 -0.000000e+000
    outer loop
      vertex   -1.290053e+002 1.601228e+002 4.000000e+000
      vertex   -1.291479e+002 1.602345e+002 0.000000e+000
      vertex   -1.290053e+002 1.601228e+002 0.000000e+000
    endloop
  endfacet
  facet normal -7.071068e-001 -7.071068e-001 -0.000000e+000
    outer loop
      vertex   -1.290053e+002 1.601228e+002 4.000000e+000
      vertex   -1.290053e+002 1.601228e+002 0.000000e+000
      vertex   -1.288772e+002 1.599947e+002 4.000000e+000
    endloop
  endfacet
  facet normal -7.071068e-001 -7.071068e-001 -0.000000e+000
    outer loop
      vertex   -1.288772e+002 1.599947e+002 4.000000e+000
      vertex   -1.290053e+002 1.601228e+002 0.000000e+000
      vertex   -1.288772e+002 1.599947e+002 0.000000e+000
    endloop
  endfacet
  facet normal -7.871974e-001 -6.167011e-001 -0.000000e+000
    outer loop
      vertex   -1.288772e+002 1.599947e+002 4.000000e+000
      vertex   -1.288772e+002 1.599947e+002 0.000000e+000
      vertex   -1.287655e+002 1.598521e+002 4.000000e+000
    endloop
  endfacet
  facet normal -7.871974e-001 -6.167011e-001 -0.000000e+000
    outer loop
      vertex   -1.287655e+002 1.598521e+002 4.000000e+000
      vertex   -1.288772e+002 1.599947e+002 0.000000e+000
      vertex   -1.287655e+002 1.598521e+002 0.000000e+000
    endloop
  endfacet
  facet normal -8.557935e-001 -5.173175e-001 -0.000000e+000
    outer loop
      vertex   -1.287655e+002 1.598521e+002 4.000000e+000
      vertex   -1.287655e+002 1.598521e+002 0.000000e+000
      vertex   -1.286718e+002 1.596971e+002 4.000000e+000
    endloop
  endfacet
  facet normal -8.557935e-001 -5.173175e-001 -0.000000e+000
    outer loop
      vertex   -1.286718e+002 1.596971e+002 4.000000e+000
      vertex   -1.287655e+002 1.598521e+002 0.000000e+000
      vertex   -1.286718e+002 1.596971e+002 0.000000e+000
    endloop
  endfacet
  facet normal -9.118978e-001 -4.104172e-001 -0.000000e+000
    outer loop
      vertex   -1.286718e+002 1.596971e+002 4.000000e+000
      vertex   -1.286718e+002 1.596971e+002 0.000000e+000
      vertex   -1.285975e+002 1.595319e+002 4.000000e+000
    endloop
  endfacet
  facet normal -9.118978e-001 -4.104172e-001 -0.000000e+000
    outer loop
      vertex   -1.285975e+002 1.595319e+002 4.000000e+000
      vertex   -1.286718e+002 1.596971e+002 0.000000e+000
      vertex   -1.285975e+002 1.595319e+002 0.000000e+000
    endloop
  endfacet
  facet normal -9.547330e-001 -2.974642e-001 -0.000000e+000
    outer loop
      vertex   -1.285975e+002 1.595319e+002 4.000000e+000
      vertex   -1.285975e+002 1.595319e+002 0.000000e+000
      vertex   -1.285436e+002 1.593590e+002 4.000000e+000
    endloop
  endfacet
  facet normal -9.547330e-001 -2.974642e-001 -0.000000e+000
    outer loop
      vertex   -1.285436e+002 1.593590e+002 4.000000e+000
      vertex   -1.285975e+002 1.595319e+002 0.000000e+000
      vertex   -1.285436e+002 1.593590e+002 0.000000e+000
    endloop
  endfacet
  facet normal -9.836183e-001 -1.802640e-001 -0.000000e+000
    outer loop
      vertex   -1.285436e+002 1.593590e+002 4.000000e+000
      vertex   -1.285436e+002 1.593590e+002 0.000000e+000
      vertex   -1.285109e+002 1.591808e+002 4.000000e+000
    endloop
  endfacet
  facet normal -9.836183e-001 -1.802640e-001 -0.000000e+000
    outer loop
      vertex   -1.285109e+002 1.591808e+002 4.000000e+000
      vertex   -1.285436e+002 1.593590e+002 0.000000e+000
      vertex   -1.285109e+002 1.591808e+002 0.000000e+000
    endloop
  endfacet
  facet normal -9.981742e-001 -6.040096e-002 -0.000000e+000
    outer loop
      vertex   -1.285109e+002 1.591808e+002 4.000000e+000
      vertex   -1.285109e+002 1.591808e+002 0.000000e+000
      vertex   -1.285000e+002 1.590000e+002 4.000000e+000
    endloop
  endfacet
  facet normal -9.981742e-001 -6.040096e-002 -0.000000e+000
    outer loop
      vertex   -1.285000e+002 1.590000e+002 4.000000e+000
      vertex   -1.285109e+002 1.591808e+002 0.000000e+000
      vertex   -1.285000e+002 1.590000e+002 0.000000e+000
    endloop
  endfacet
  facet normal 1.000000e+000 0.000000e+000 0.000000e+000
    outer loop
      vertex   -1.315000e+002 1.560000e+002 0.000000e+000
      vertex   -1.315000e+002 1.590000e+002 0.000000e+000
      vertex   -1.315000e+002 1.560000e+002 4.000000e+000
    endloop
  endfacet
  facet normal 1.000000e+000 -0.000000e+000 0.000000e+000
    outer loop
      vertex   -1.315000e+002 1.560000e+002 4.000000e+000
      vertex   -1.315000e+002 1.590000e+002 0.000000e+000
      vertex   -1.315000e+002 1.590000e+002 4.000000e+000
    endloop
  endfacet
  facet normal -9.981742e-001 6.040096e-002 0.000000e+000
    outer loop
      vertex   -1.285000e+002 1.560000e+002 4.000000e+000
      vertex   -1.285000e+002 1.560000e+002 0.000000e+000
      vertex   -1.285109e+002 1.558192e+002 4.000000e+000
    endloop
  endfacet
  facet normal -9.981742e-001 6.040096e-002 0.000000e+000
    outer loop
      vertex   -1.285109e+002 1.558192e+002 4.000000e+000
      vertex   -1.285000e+002 1.560000e+002 0.000000e+000
      vertex   -1.285109e+002 1.558192e+002 0.000000e+000
    endloop
  endfacet
  facet normal -9.836183e-001 1.802640e-001 0.000000e+000
    outer loop
      vertex   -1.285109e+002 1.558192e+002 4.000000e+000
      vertex   -1.285109e+002 1.558192e+002 0.000000e+000
      vertex   -1.285436e+002 1.556410e+002 4.000000e+000
    endloop
  endfacet
  facet normal -9.836183e-001 1.802640e-001 0.000000e+000
    outer loop
      vertex   -1.285436e+002 1.556410e+002 4.000000e+000
      vertex   -1.285109e+002 1.558192e+002 0.000000e+000
      vertex   -1.285436e+002 1.556410e+002 0.000000e+000
    endloop
  endfacet
  facet normal -9.547330e-001 2.974642e-001 0.000000e+000
    outer loop
      vertex   -1.285436e+002 1.556410e+002 4.000000e+000
      vertex   -1.285436e+002 1.556410e+002 0.000000e+000
      vertex   -1.285975e+002 1.554681e+002 4.000000e+000
    endloop
  endfacet
  facet normal -9.547330e-001 2.974642e-001 0.000000e+000
    outer loop
      vertex   -1.285975e+002 1.554681e+002 4.000000e+000
      vertex   -1.285436e+002 1.556410e+002 0.000000e+000
      vertex   -1.285975e+002 1.554681e+002 0.000000e+000
    endloop
  endfacet
  facet normal -9.118978e-001 4.104172e-001 0.000000e+000
    outer loop
      vertex   -1.285975e+002 1.554681e+002 4.000000e+000
      vertex   -1.285975e+002 1.554681e+002 0.000000e+000
      vertex   -1.286718e+002 1.553029e+002 4.000000e+000
    endloop
  endfacet
  facet normal -9.118978e-001 4.104172e-001 0.000000e+000
    outer loop
      vertex   -1.286718e+002 1.553029e+002 4.000000e+000
      vertex   -1.285975e+002 1.554681e+002 0.000000e+000
      vertex   -1.286718e+002 1.553029e+002 0.000000e+000
    endloop
  endfacet
  facet normal -8.557935e-001 5.173175e-001 0.000000e+000
    outer loop
      vertex   -1.286718e+002 1.553029e+002 4.000000e+000
      vertex   -1.286718e+002 1.553029e+002 0.000000e+000
      vertex   -1.287655e+002 1.551479e+002 4.000000e+000
    endloop
  endfacet
  facet normal -8.557935e-001 5.173175e-001 0.000000e+000
    outer loop
      vertex   -1.287655e+002 1.551479e+002 4.000000e+000
      vertex   -1.286718e+002 1.553029e+002 0.000000e+000
      vertex   -1.287655e+002 1.551479e+002 0.000000e+000
    endloop
  endfacet
  facet normal -7.871974e-001 6.167011e-001 0.000000e+000
    outer loop
      vertex   -1.287655e+002 1.551479e+002 4.000000e+000
      vertex   -1.287655e+002 1.551479e+002 0.000000e+000
      vertex   -1.288772e+002 1.550053e+002 4.000000e+000
    endloop
  endfacet
  facet normal -7.871974e-001 6.167011e-001 0.000000e+000
    outer loop
      vertex   -1.288772e+002 1.550053e+002 4.000000e+000
      vertex   -1.287655e+002 1.551479e+002 0.000000e+000
      vertex   -1.288772e+002 1.550053e+002 0.000000e+000
    endloop
  endfacet
  facet normal -7.071068e-001 7.071068e-001 0.000000e+000
    outer loop
      vertex   -1.288772e+002 1.550053e+002 4.000000e+000
      vertex   -1.288772e+002 1.550053e+002 0.000000e+000
      vertex   -1.290053e+002 1.548772e+002 4.000000e+000
    endloop
  endfacet
  facet normal -7.071068e-001 7.071068e-001 0.000000e+000
    outer loop
      vertex   -1.290053e+002 1.548772e+002 4.000000e+000
      vertex   -1.288772e+002 1.550053e+002 0.000000e+000
      vertex   -1.290053e+002 1.548772e+002 0.000000e+000
    endloop
  endfacet
  facet normal -6.167011e-001 7.871974e-001 0.000000e+000
    outer loop
      vertex   -1.290053e+002 1.548772e+002 4.000000e+000
      vertex   -1.290053e+002 1.548772e+002 0.000000e+000
      vertex   -1.291479e+002 1.547655e+002 4.000000e+000
    endloop
  endfacet
  facet normal -6.167011e-001 7.871974e-001 0.000000e+000
    outer loop
      vertex   -1.291479e+002 1.547655e+002 4.000000e+000
      vertex   -1.290053e+002 1.548772e+002 0.000000e+000
      vertex   -1.291479e+002 1.547655e+002 0.000000e+000
    endloop
  endfacet
  facet normal -5.173175e-001 8.557935e-001 0.000000e+000
    outer loop
      vertex   -1.291479e+002 1.547655e+002 4.000000e+000
      vertex   -1.291479e+002 1.547655e+002 0.000000e+000
      vertex   -1.293029e+002 1.546718e+002 4.000000e+000
    endloop
  endfacet
  facet normal -5.173175e-001 8.557935e-001 0.000000e+000
    outer loop
      vertex   -1.293029e+002 1.546718e+002 4.000000e+000
      vertex   -1.291479e+002 1.547655e+002 0.000000e+000
      vertex   -1.293029e+002 1.546718e+002 0.000000e+000
    endloop
  endfacet
  facet normal -4.104172e-001 9.118978e-001 0.000000e+000
    outer loop
      vertex   -1.293029e+002 1.546718e+002 4.000000e+000
      vertex   -1.293029e+002 1.546718e+002 0.000000e+000
      vertex   -1.294681e+002 1.545975e+002 4.000000e+000
    endloop
  endfacet
  facet normal -4.104172e-001 9.118978e-001 0.000000e+000
    outer loop
      vertex   -1.294681e+002 1.545975e+002 4.000000e+000
      vertex   -1.293029e+002 1.546718e+002 0.000000e+000
      vertex   -1.294681e+002 1.545975e+002 0.000000e+000
    endloop
  endfacet
  facet normal -2.974642e-001 9.547330e-001 0.000000e+000
    outer loop
      vertex   -1.294681e+002 1.545975e+002 4.000000e+000
      vertex   -1.294681e+002 1.545975e+002 0.000000e+000
      vertex   -1.296410e+002 1.545436e+002 4.000000e+000
    endloop
  endfacet
  facet normal -2.974642e-001 9.547330e-001 0.000000e+000
    outer loop
      vertex   -1.296410e+002 1.545436e+002 4.000000e+000
      vertex   -1.294681e+002 1.545975e+002 0.000000e+000
      vertex   -1.296410e+002 1.545436e+002 0.000000e+000
    endloop
  endfacet
  facet normal -1.802640e-001 9.836183e-001 0.000000e+000
    outer loop
      vertex   -1.296410e+002 1.545436e+002 4.000000e+000
      vertex   -1.296410e+002 1.545436e+002 0.000000e+000
      vertex   -1.298192e+002 1.545109e+002 4.000000e+000
    endloop
  endfacet
  facet normal -1.802640e-001 9.836183e-001 0.000000e+000
    outer loop
      vertex   -1.298192e+002 1.545109e+002 4.000000e+000
      vertex   -1.296410e+002 1.545436e+002 0.000000e+000
      vertex   -1.298192e+002 1.545109e+002 0.000000e+000
    endloop
  endfacet
  facet normal -6.040096e-002 9.981742e-001 0.000000e+000
    outer loop
      vertex   -1.298192e+002 1.545109e+002 4.000000e+000
      vertex   -1.298192e+002 1.545109e+002 0.000000e+000
      vertex   -1.300000e+002 1.545000e+002 4.000000e+000
    endloop
  endfacet
  facet normal -6.040096e-002 9.981742e-001 0.000000e+000
    outer loop
      vertex   -1.300000e+002 1.545000e+002 4.000000e+000
      vertex   -1.298192e+002 1.545109e+002 0.000000e+000
      vertex   -1.300000e+002 1.545000e+002 0.000000e+000
    endloop
  endfacet
  facet normal 6.040096e-002 9.981742e-001 0.000000e+000
    outer loop
      vertex   -1.300000e+002 1.545000e+002 4.000000e+000
      vertex   -1.300000e+002 1.545000e+002 0.000000e+000
      vertex   -1.301808e+002 1.545109e+002 4.000000e+000
    endloop
  endfacet
  facet normal 6.040096e-002 9.981742e-001 0.000000e+000
    outer loop
      vertex   -1.301808e+002 1.545109e+002 4.000000e+000
      vertex   -1.300000e+002 1.545000e+002 0.000000e+000
      vertex   -1.301808e+002 1.545109e+002 0.000000e+000
    endloop
  endfacet
  facet normal 1.802640e-001 9.836183e-001 0.000000e+000
    outer loop
      vertex   -1.301808e+002 1.545109e+002 4.000000e+000
      vertex   -1.301808e+002 1.545109e+002 0.000000e+000
      vertex   -1.303590e+002 1.545436e+002 4.000000e+000
    endloop
  endfacet
  facet normal 1.802640e-001 9.836183e-001 0.000000e+000
    outer loop
      vertex   -1.303590e+002 1.545436e+002 4.000000e+000
      vertex   -1.301808e+002 1.545109e+002 0.000000e+000
      vertex   -1.303590e+002 1.545436e+002 0.000000e+000
    endloop
  endfacet
  facet normal 2.974642e-001 9.547330e-001 0.000000e+000
    outer loop
      vertex   -1.303590e+002 1.545436e+002 4.000000e+000
      vertex   -1.303590e+002 1.545436e+002 0.000000e+000
      vertex   -1.305319e+002 1.545975e+002 4.000000e+000
    endloop
  endfacet
  facet normal 2.974642e-001 9.547330e-001 0.000000e+000
    outer loop
      vertex   -1.305319e+002 1.545975e+002 4.000000e+000
      vertex   -1.303590e+002 1.545436e+002 0.000000e+000
      vertex   -1.305319e+002 1.545975e+002 0.000000e+000
    endloop
  endfacet
  facet normal 4.104172e-001 9.118978e-001 0.000000e+000
    outer loop
      vertex   -1.305319e+002 1.545975e+002 4.000000e+000
      vertex   -1.305319e+002 1.545975e+002 0.000000e+000
      vertex   -1.306971e+002 1.546718e+002 4.000000e+000
    endloop
  endfacet
  facet normal 4.104172e-001 9.118978e-001 0.000000e+000
    outer loop
      vertex   -1.306971e+002 1.546718e+002 4.000000e+000
      vertex   -1.305319e+002 1.545975e+002 0.000000e+000
      vertex   -1.306971e+002 1.546718e+002 0.000000e+000
    endloop
  endfacet
  facet normal 5.173175e-001 8.557935e-001 0.000000e+000
    outer loop
      vertex   -1.306971e+002 1.546718e+002 4.000000e+000
      vertex   -1.306971e+002 1.546718e+002 0.000000e+000
      vertex   -1.308521e+002 1.547655e+002 4.000000e+000
    endloop
  endfacet
  facet normal 5.173175e-001 8.557935e-001 0.000000e+000
    outer loop
      vertex   -1.308521e+002 1.547655e+002 4.000000e+000
      vertex   -1.306971e+002 1.546718e+002 0.000000e+000
      vertex   -1.308521e+002 1.547655e+002 0.000000e+000
    endloop
  endfacet
  facet normal 6.167011e-001 7.871974e-001 0.000000e+000
    outer loop
      vertex   -1.308521e+002 1.547655e+002 4.000000e+000
      vertex   -1.308521e+002 1.547655e+002 0.000000e+000
      vertex   -1.309947e+002 1.548772e+002 4.000000e+000
    endloop
  endfacet
  facet normal 6.167011e-001 7.871974e-001 0.000000e+000
    outer loop
      vertex   -1.309947e+002 1.548772e+002 4.000000e+000
      vertex   -1.308521e+002 1.547655e+002 0.000000e+000
      vertex   -1.309947e+002 1.548772e+002 0.000000e+000
    endloop
  endfacet
  facet normal 7.071068e-001 7.071068e-001 0.000000e+000
    outer loop
      vertex   -1.309947e+002 1.548772e+002 4.000000e+000
      vertex   -1.309947e+002 1.548772e+002 0.000000e+000
      vertex   -1.311228e+002 1.550053e+002 4.000000e+000
    endloop
  endfacet
  facet normal 7.071068e-001 7.071068e-001 0.000000e+000
    outer loop
      vertex   -1.311228e+002 1.550053e+002 4.000000e+000
      vertex   -1.309947e+002 1.548772e+002 0.000000e+000
      vertex   -1.311228e+002 1.550053e+002 0.000000e+000
    endloop
  endfacet
  facet normal 7.871974e-001 6.167011e-001 0.000000e+000
    outer loop
      vertex   -1.311228e+002 1.550053e+002 4.000000e+000
      vertex   -1.311228e+002 1.550053e+002 0.000000e+000
      vertex   -1.312345e+002 1.551479e+002 4.000000e+000
    endloop
  endfacet
  facet normal 7.871974e-001 6.167011e-001 0.000000e+000
    outer loop
      vertex   -1.312345e+002 1.551479e+002 4.000000e+000
      vertex   -1.311228e+002 1.550053e+002 0.000000e+000
      vertex   -1.312345e+002 1.551479e+002 0.000000e+000
    endloop
  endfacet
  facet normal 8.557935e-001 5.173175e-001 0.000000e+000
    outer loop
      vertex   -1.312345e+002 1.551479e+002 4.000000e+000
      vertex   -1.312345e+002 1.551479e+002 0.000000e+000
      vertex   -1.313282e+002 1.553029e+002 4.000000e+000
    endloop
  endfacet
  facet normal 8.557935e-001 5.173175e-001 0.000000e+000
    outer loop
      vertex   -1.313282e+002 1.553029e+002 4.000000e+000
      vertex   -1.312345e+002 1.551479e+002 0.000000e+000
      vertex   -1.313282e+002 1.553029e+002 0.000000e+000
    endloop
  endfacet
  facet normal 9.118978e-001 4.104172e-001 0.000000e+000
    outer loop
      vertex   -1.313282e+002 1.553029e+002 4.000000e+000
      vertex   -1.313282e+002 1.553029e+002 0.000000e+000
      vertex   -1.314025e+002 1.554681e+002 4.000000e+000
    endloop
  endfacet
  facet normal 9.118978e-001 4.104172e-001 0.000000e+000
    outer loop
      vertex   -1.314025e+002 1.554681e+002 4.000000e+000
      vertex   -1.313282e+002 1.553029e+002 0.000000e+000
      vertex   -1.314025e+002 1.554681e+002 0.000000e+000
    endloop
  endfacet
  facet normal 9.547330e-001 2.974642e-001 0.000000e+000
    outer loop
      vertex   -1.314025e+002 1.554681e+002 4.000000e+000
      vertex   -1.314025e+002 1.554681e+002 0.000000e+000
      vertex   -1.314564e+002 1.556410e+002 4.000000e+000
    endloop
  endfacet
  facet normal 9.547330e-001 2.974642e-001 0.000000e+000
    outer loop
      vertex   -1.314564e+002 1.556410e+002 4.000000e+000
      vertex   -1.314025e+002 1.554681e+002 0.000000e+000
      vertex   -1.314564e+002 1.556410e+002 0.000000e+000
    endloop
  endfacet
  facet normal 9.836183e-001 1.802640e-001 0.000000e+000
    outer loop
      vertex   -1.314564e+002 1.556410e+002 4.000000e+000
      vertex   -1.314564e+002 1.556410e+002 0.000000e+000
      vertex   -1.314891e+002 1.558192e+002 4.000000e+000
    endloop
  endfacet
  facet normal 9.836183e-001 1.802640e-001 0.000000e+000
    outer loop
      vertex   -1.314891e+002 1.558192e+002 4.000000e+000
      vertex   -1.314564e+002 1.556410e+002 0.000000e+000
      vertex   -1.314891e+002 1.558192e+002 0.000000e+000
    endloop
  endfacet
  facet normal 9.981742e-001 6.040096e-002 0.000000e+000
    outer loop
      vertex   -1.314891e+002 1.558192e+002 4.000000e+000
      vertex   -1.314891e+002 1.558192e+002 0.000000e+000
      vertex   -1.315000e+002 1.560000e+002 4.000000e+000
    endloop
  endfacet
  facet normal 9.981742e-001 6.040096e-002 0.000000e+000
    outer loop
      vertex   -1.315000e+002 1.560000e+002 4.000000e+000
      vertex   -1.314891e+002 1.558192e+002 0.000000e+000
      vertex   -1.315000e+002 1.560000e+002 0.000000e+000
    endloop
  endfacet
  facet normal 0.000000e+000 -1.000000e+000 0.000000e+000
    outer loop
      vertex   -1.250000e+002 1.500000e+002 0.000000e+000
      vertex   -1.250000e+002 1.500000e+002 4.000000e+000
      vertex   -1.400000e+002 1.500000e+002 0.000000e+000
    endloop
  endfacet
  facet normal 0.000000e+000 -1.000000e+000 0.000000e+000
    outer loop
      vertex   -1.400000e+002 1.500000e+002 0.000000e+000
      vertex   -1.250000e+002 1.500000e+002 4.000000e+000
      vertex   -1.450000e+002 1.500000e+002 4.000000e+000
    endloop
  endfacet
  facet normal -0.000000e+000 -1.000000e+000 0.000000e+000
    outer loop
      vertex   -1.400000e+002 1.500000e+002 0.000000e+000
      vertex   -1.450000e+002 1.500000e+002 4.000000e+000
      vertex   -1.450000e+002 1.500000e+002 -3.050000e+001
    endloop
  endfacet
  facet normal 0.000000e+000 -1.000000e+000 0.000000e+000
    outer loop
      vertex   -1.450000e+002 1.500000e+002 -3.050000e+001
      vertex   -1.400000e+002 1.500000e+002 -3.050000e+001
      vertex   -1.400000e+002 1.500000e+002 0.000000e+000
    endloop
  endfacet
  facet normal -1.000000e+000 0.000000e+000 0.000000e+000
    outer loop
      vertex   -1.450000e+002 1.500000e+002 4.000000e+000
      vertex   -1.450000e+002 1.650000e+002 4.000000e+000
      vertex   -1.450000e+002 1.500000e+002 -3.050000e+001
    endloop
  endfacet
  facet normal -1.000000e+000 0.000000e+000 0.000000e+000
    outer loop
      vertex   -1.450000e+002 1.500000e+002 -3.050000e+001
      vertex   -1.450000e+002 1.650000e+002 4.000000e+000
      vertex   -1.450000e+002 1.650000e+002 -3.050000e+001
    endloop
  endfacet
  facet normal 0.000000e+000 1.000000e+000 -0.000000e+000
    outer loop
      vertex   -1.400000e+002 1.650000e+002 -3.050000e+001
      vertex   -1.450000e+002 1.650000e+002 -3.050000e+001
      vertex   -1.400000e+002 1.650000e+002 0.000000e+000
    endloop
  endfacet
  facet normal 0.000000e+000 1.000000e+000 0.000000e+000
    outer loop
      vertex   -1.400000e+002 1.650000e+002 0.000000e+000
      vertex   -1.450000e+002 1.650000e+002 -3.050000e+001
      vertex   -1.450000e+002 1.650000e+002 4.000000e+000
    endloop
  endfacet
  facet normal 0.000000e+000 1.000000e+000 -0.000000e+000
    outer loop
      vertex   -1.400000e+002 1.650000e+002 0.000000e+000
      vertex   -1.450000e+002 1.650000e+002 4.000000e+000
      vertex   -1.250000e+002 1.650000e+002 4.000000e+000
    endloop
  endfacet
  facet normal 0.000000e+000 1.000000e+000 0.000000e+000
    outer loop
      vertex   -1.250000e+002 1.650000e+002 4.000000e+000
      vertex   -1.250000e+002 1.650000e+002 0.000000e+000
      vertex   -1.400000e+002 1.650000e+002 0.000000e+000
    endloop
  endfacet
  facet normal 1.000000e+000 0.000000e+000 0.000000e+000
    outer loop
      vertex   -1.250000e+002 1.500000e+002 0.000000e+000
      vertex   -1.250000e+002 1.650000e+002 0.000000e+000
      vertex   -1.250000e+002 1.500000e+002 4.000000e+000
    endloop
  endfacet
  facet normal 1.000000e+000 -0.000000e+000 0.000000e+000
    outer loop
      vertex   -1.250000e+002 1.500000e+002 4.000000e+000
      vertex   -1.250000e+002 1.650000e+002 0.000000e+000
      vertex   -1.250000e+002 1.650000e+002 4.000000e+000
    endloop
  endfacet
  facet normal 0.000000e+000 0.000000e+000 1.000000e+000
    outer loop
      vertex   -1.250000e+002 1.650000e+002 4.000000e+000
      vertex   -1.285000e+002 1.590000e+002 4.000000e+000
      vertex   -1.250000e+002 1.500000e+002 4.000000e+000
    endloop
  endfacet
  facet normal 0.000000e+000 0.000000e+000 1.000000e+000
    outer loop
      vertex   -1.250000e+002 1.500000e+002 4.000000e+000
      vertex   -1.285000e+002 1.590000e+002 4.000000e+000
      vertex   -1.285000e+002 1.560000e+002 4.000000e+000
    endloop
  endfacet
  facet normal 0.000000e+000 0.000000e+000 1.000000e+000
    outer loop
      vertex   -1.250000e+002 1.500000e+002 4.000000e+000
      vertex   -1.285000e+002 1.560000e+002 4.000000e+000
      vertex   -1.285109e+002 1.558192e+002 4.000000e+000
    endloop
  endfacet
  facet normal -0.000000e+000 0.000000e+000 1.000000e+000
    outer loop
      vertex   -1.450000e+002 1.650000e+002 4.000000e+000
      vertex   -1.305319e+002 1.604025e+002 4.000000e+000
      vertex   -1.250000e+002 1.650000e+002 4.000000e+000
    endloop
  endfacet
  facet normal 0.000000e+000 0.000000e+000 1.000000e+000
    outer loop
      vertex   -1.250000e+002 1.650000e+002 4.000000e+000
      vertex   -1.305319e+002 1.604025e+002 4.000000e+000
      vertex   -1.303590e+002 1.604564e+002 4.000000e+000
    endloop
  endfacet
  facet normal 0.000000e+000 0.000000e+000 1.000000e+000
    outer loop
      vertex   -1.250000e+002 1.650000e+002 4.000000e+000
      vertex   -1.303590e+002 1.604564e+002 4.000000e+000
      vertex   -1.301808e+002 1.604891e+002 4.000000e+000
    endloop
  endfacet
  facet normal 0.000000e+000 0.000000e+000 1.000000e+000
    outer loop
      vertex   -1.450000e+002 1.500000e+002 4.000000e+000
      vertex   -1.315000e+002 1.590000e+002 4.000000e+000
      vertex   -1.450000e+002 1.650000e+002 4.000000e+000
    endloop
  endfacet
  facet normal 0.000000e+000 0.000000e+000 1.000000e+000
    outer loop
      vertex   -1.450000e+002 1.650000e+002 4.000000e+000
      vertex   -1.315000e+002 1.590000e+002 4.000000e+000
      vertex   -1.314891e+002 1.591808e+002 4.000000e+000
    endloop
  endfacet
  facet normal 0.000000e+000 0.000000e+000 1.000000e+000
    outer loop
      vertex   -1.450000e+002 1.650000e+002 4.000000e+000
      vertex   -1.314891e+002 1.591808e+002 4.000000e+000
      vertex   -1.314564e+002 1.593590e+002 4.000000e+000
    endloop
  endfacet
  facet normal 0.000000e+000 0.000000e+000 1.000000e+000
    outer loop
      vertex   -1.250000e+002 1.500000e+002 4.000000e+000
      vertex   -1.305319e+002 1.545975e+002 4.000000e+000
      vertex   -1.450000e+002 1.500000e+002 4.000000e+000
    endloop
  endfacet
  facet normal 0.000000e+000 0.000000e+000 1.000000e+000
    outer loop
      vertex   -1.450000e+002 1.500000e+002 4.000000e+000
      vertex   -1.305319e+002 1.545975e+002 4.000000e+000
      vertex   -1.306971e+002 1.546718e+002 4.000000e+000
    endloop
  endfacet
  facet normal 0.000000e+000 0.000000e+000 1.000000e+000
    outer loop
      vertex   -1.450000e+002 1.500000e+002 4.000000e+000
      vertex   -1.306971e+002 1.546718e+002 4.000000e+000
      vertex   -1.308521e+002 1.547655e+002 4.000000e+000
    endloop
  endfacet
  facet normal 0.000000e+000 0.000000e+000 1.000000e+000
    outer loop
      vertex   -1.285109e+002 1.558192e+002 4.000000e+000
      vertex   -1.285436e+002 1.556410e+002 4.000000e+000
      vertex   -1.250000e+002 1.500000e+002 4.000000e+000
    endloop
  endfacet
  facet normal 0.000000e+000 0.000000e+000 1.000000e+000
    outer loop
      vertex   -1.250000e+002 1.500000e+002 4.000000e+000
      vertex   -1.285436e+002 1.556410e+002 4.000000e+000
      vertex   -1.285975e+002 1.554681e+002 4.000000e+000
    endloop
  endfacet
  facet normal 0.000000e+000 0.000000e+000 1.000000e+000
    outer loop
      vertex   -1.250000e+002 1.500000e+002 4.000000e+000
      vertex   -1.285975e+002 1.554681e+002 4.000000e+000
      vertex   -1.286718e+002 1.553029e+002 4.000000e+000
    endloop
  endfacet
  facet normal 0.000000e+000 0.000000e+000 1.000000e+000
    outer loop
      vertex   -1.286718e+002 1.553029e+002 4.000000e+000
      vertex   -1.287655e+002 1.551479e+002 4.000000e+000
      vertex   -1.250000e+002 1.500000e+002 4.000000e+000
    endloop
  endfacet
  facet normal 0.000000e+000 0.000000e+000 1.000000e+000
    outer loop
      vertex   -1.250000e+002 1.500000e+002 4.000000e+000
      vertex   -1.287655e+002 1.551479e+002 4.000000e+000
      vertex   -1.288772e+002 1.550053e+002 4.000000e+000
    endloop
  endfacet
  facet normal 0.000000e+000 0.000000e+000 1.000000e+000
    outer loop
      vertex   -1.250000e+002 1.500000e+002 4.000000e+000
      vertex   -1.288772e+002 1.550053e+002 4.000000e+000
      vertex   -1.290053e+002 1.548772e+002 4.000000e+000
    endloop
  endfacet
  facet normal 0.000000e+000 0.000000e+000 1.000000e+000
    outer loop
      vertex   -1.290053e+002 1.548772e+002 4.000000e+000
      vertex   -1.291479e+002 1.547655e+002 4.000000e+000
      vertex   -1.250000e+002 1.500000e+002 4.000000e+000
    endloop
  endfacet
  facet normal 0.000000e+000 0.000000e+000 1.000000e+000
    outer loop
      vertex   -1.250000e+002 1.500000e+002 4.000000e+000
      vertex   -1.291479e+002 1.547655e+002 4.000000e+000
      vertex   -1.293029e+002 1.546718e+002 4.000000e+000
    endloop
  endfacet
  facet normal 0.000000e+000 0.000000e+000 1.000000e+000
    outer loop
      vertex   -1.250000e+002 1.500000e+002 4.000000e+000
      vertex   -1.293029e+002 1.546718e+002 4.000000e+000
      vertex   -1.294681e+002 1.545975e+002 4.000000e+000
    endloop
  endfacet
  facet normal 0.000000e+000 0.000000e+000 1.000000e+000
    outer loop
      vertex   -1.294681e+002 1.545975e+002 4.000000e+000
      vertex   -1.296410e+002 1.545436e+002 4.000000e+000
      vertex   -1.250000e+002 1.500000e+002 4.000000e+000
    endloop
  endfacet
  facet normal 0.000000e+000 0.000000e+000 1.000000e+000
    outer loop
      vertex   -1.250000e+002 1.500000e+002 4.000000e+000
      vertex   -1.296410e+002 1.545436e+002 4.000000e+000
      vertex   -1.298192e+002 1.545109e+002 4.000000e+000
    endloop
  endfacet
  facet normal 0.000000e+000 0.000000e+000 1.000000e+000
    outer loop
      vertex   -1.250000e+002 1.500000e+002 4.000000e+000
      vertex   -1.298192e+002 1.545109e+002 4.000000e+000
      vertex   -1.300000e+002 1.545000e+002 4.000000e+000
    endloop
  endfacet
  facet normal 0.000000e+000 0.000000e+000 1.000000e+000
    outer loop
      vertex   -1.300000e+002 1.545000e+002 4.000000e+000
      vertex   -1.301808e+002 1.545109e+002 4.000000e+000
      vertex   -1.250000e+002 1.500000e+002 4.000000e+000
    endloop
  endfacet
  facet normal 0.000000e+000 0.000000e+000 1.000000e+000
    outer loop
      vertex   -1.250000e+002 1.500000e+002 4.000000e+000
      vertex   -1.301808e+002 1.545109e+002 4.000000e+000
      vertex   -1.303590e+002 1.545436e+002 4.000000e+000
    endloop
  endfacet
  facet normal 0.000000e+000 0.000000e+000 1.000000e+000
    outer loop
      vertex   -1.250000e+002 1.500000e+002 4.000000e+000
      vertex   -1.303590e+002 1.545436e+002 4.000000e+000
      vertex   -1.305319e+002 1.545975e+002 4.000000e+000
    endloop
  endfacet
  facet normal 0.000000e+000 0.000000e+000 1.000000e+000
    outer loop
      vertex   -1.308521e+002 1.547655e+002 4.000000e+000
      vertex   -1.309947e+002 1.548772e+002 4.000000e+000
      vertex   -1.450000e+002 1.500000e+002 4.000000e+000
    endloop
  endfacet
  facet normal 0.000000e+000 0.000000e+000 1.000000e+000
    outer loop
      vertex   -1.450000e+002 1.500000e+002 4.000000e+000
      vertex   -1.309947e+002 1.548772e+002 4.000000e+000
      vertex   -1.311228e+002 1.550053e+002 4.000000e+000
    endloop
  endfacet
  facet normal 0.000000e+000 0.000000e+000 1.000000e+000
    outer loop
      vertex   -1.450000e+002 1.500000e+002 4.000000e+000
      vertex   -1.311228e+002 1.550053e+002 4.000000e+000
      vertex   -1.312345e+002 1.551479e+002 4.000000e+000
    endloop
  endfacet
  facet normal 0.000000e+000 0.000000e+000 1.000000e+000
    outer loop
      vertex   -1.312345e+002 1.551479e+002 4.000000e+000
      vertex   -1.313282e+002 1.553029e+002 4.000000e+000
      vertex   -1.450000e+002 1.500000e+002 4.000000e+000
    endloop
  endfacet
  facet normal 0.000000e+000 0.000000e+000 1.000000e+000
    outer loop
      vertex   -1.450000e+002 1.500000e+002 4.000000e+000
      vertex   -1.313282e+002 1.553029e+002 4.000000e+000
      vertex   -1.314025e+002 1.554681e+002 4.000000e+000
    endloop
  endfacet
  facet normal 0.000000e+000 0.000000e+000 1.000000e+000
    outer loop
      vertex   -1.450000e+002 1.500000e+002 4.000000e+000
      vertex   -1.314025e+002 1.554681e+002 4.000000e+000
      vertex   -1.314564e+002 1.556410e+002 4.000000e+000
    endloop
  endfacet
  facet normal 0.000000e+000 0.000000e+000 1.000000e+000
    outer loop
      vertex   -1.314564e+002 1.556410e+002 4.000000e+000
      vertex   -1.314891e+002 1.558192e+002 4.000000e+000
      vertex   -1.450000e+002 1.500000e+002 4.000000e+000
    endloop
  endfacet
  facet normal 0.000000e+000 0.000000e+000 1.000000e+000
    outer loop
      vertex   -1.450000e+002 1.500000e+002 4.000000e+000
      vertex   -1.314891e+002 1.558192e+002 4.000000e+000
      vertex   -1.315000e+002 1.560000e+002 4.000000e+000
    endloop
  endfacet
  facet normal 0.000000e+000 0.000000e+000 1.000000e+000
    outer loop
      vertex   -1.450000e+002 1.500000e+002 4.000000e+000
      vertex   -1.315000e+002 1.560000e+002 4.000000e+000
      vertex   -1.315000e+002 1.590000e+002 4.000000e+000
    endloop
  endfacet
  facet normal 0.000000e+000 -0.000000e+000 1.000000e+000
    outer loop
      vertex   -1.314564e+002 1.593590e+002 4.000000e+000
      vertex   -1.314025e+002 1.595319e+002 4.000000e+000
      vertex   -1.450000e+002 1.650000e+002 4.000000e+000
    endloop
  endfacet
  facet normal 0.000000e+000 0.000000e+000 1.000000e+000
    outer loop
      vertex   -1.450000e+002 1.650000e+002 4.000000e+000
      vertex   -1.314025e+002 1.595319e+002 4.000000e+000
      vertex   -1.313282e+002 1.596971e+002 4.000000e+000
    endloop
  endfacet
  facet normal 0.000000e+000 0.000000e+000 1.000000e+000
    outer loop
      vertex   -1.450000e+002 1.650000e+002 4.000000e+000
      vertex   -1.313282e+002 1.596971e+002 4.000000e+000
      vertex   -1.312345e+002 1.598521e+002 4.000000e+000
    endloop
  endfacet
  facet normal 0.000000e+000 -0.000000e+000 1.000000e+000
    outer loop
      vertex   -1.312345e+002 1.598521e+002 4.000000e+000
      vertex   -1.311228e+002 1.599947e+002 4.000000e+000
      vertex   -1.450000e+002 1.650000e+002 4.000000e+000
    endloop
  endfacet
  facet normal 0.000000e+000 0.000000e+000 1.000000e+000
    outer loop
      vertex   -1.450000e+002 1.650000e+002 4.000000e+000
      vertex   -1.311228e+002 1.599947e+002 4.000000e+000
      vertex   -1.309947e+002 1.601228e+002 4.000000e+000
    endloop
  endfacet
  facet normal 0.000000e+000 0.000000e+000 1.000000e+000
    outer loop
      vertex   -1.450000e+002 1.650000e+002 4.000000e+000
      vertex   -1.309947e+002 1.601228e+002 4.000000e+000
      vertex   -1.308521e+002 1.602345e+002 4.000000e+000
    endloop
  endfacet
  facet normal 0.000000e+000 -0.000000e+000 1.000000e+000
    outer loop
      vertex   -1.308521e+002 1.602345e+002 4.000000e+000
      vertex   -1.306971e+002 1.603282e+002 4.000000e+000
      vertex   -1.450000e+002 1.650000e+002 4.000000e+000
    endloop
  endfacet
  facet normal 0.000000e+000 0.000000e+000 1.000000e+000
    outer loop
      vertex   -1.450000e+002 1.650000e+002 4.000000e+000
      vertex   -1.306971e+002 1.603282e+002 4.000000e+000
      vertex   -1.305319e+002 1.604025e+002 4.000000e+000
    endloop
  endfacet
  facet normal 0.000000e+000 0.000000e+000 1.000000e+000
    outer loop
      vertex   -1.301808e+002 1.604891e+002 4.000000e+000
      vertex   -1.300000e+002 1.605000e+002 4.000000e+000
      vertex   -1.250000e+002 1.650000e+002 4.000000e+000
    endloop
  endfacet
  facet normal 0.000000e+000 0.000000e+000 1.000000e+000
    outer loop
      vertex   -1.250000e+002 1.650000e+002 4.000000e+000
      vertex   -1.300000e+002 1.605000e+002 4.000000e+000
      vertex   -1.298192e+002 1.604891e+002 4.000000e+000
    endloop
  endfacet
  facet normal 0.000000e+000 0.000000e+000 1.000000e+000
    outer loop
      vertex   -1.250000e+002 1.650000e+002 4.000000e+000
      vertex   -1.298192e+002 1.604891e+002 4.000000e+000
      vertex   -1.296410e+002 1.604564e+002 4.000000e+000
    endloop
  endfacet
  facet normal -0.000000e+000 0.000000e+000 1.000000e+000
    outer loop
      vertex   -1.296410e+002 1.604564e+002 4.000000e+000
      vertex   -1.294681e+002 1.604025e+002 4.000000e+000
      vertex   -1.250000e+002 1.650000e+002 4.000000e+000
    endloop
  endfacet
  facet normal 0.000000e+000 0.000000e+000 1.000000e+000
    outer loop
      vertex   -1.250000e+002 1.650000e+002 4.000000e+000
      vertex   -1.294681e+002 1.604025e+002 4.000000e+000
      vertex   -1.293029e+002 1.603282e+002 4.000000e+000
    endloop
  endfacet
  facet normal 0.000000e+000 0.000000e+000 1.000000e+000
    outer loop
      vertex   -1.250000e+002 1.650000e+002 4.000000e+000
      vertex   -1.293029e+002 1.603282e+002 4.000000e+000
      vertex   -1.291479e+002 1.602345e+002 4.000000e+000
    endloop
  endfacet
  facet normal -0.000000e+000 0.000000e+000 1.000000e+000
    outer loop
      vertex   -1.291479e+002 1.602345e+002 4.000000e+000
      vertex   -1.290053e+002 1.601228e+002 4.000000e+000
      vertex   -1.250000e+002 1.650000e+002 4.000000e+000
    endloop
  endfacet
  facet normal 0.000000e+000 0.000000e+000 1.000000e+000
    outer loop
      vertex   -1.250000e+002 1.650000e+002 4.000000e+000
      vertex   -1.290053e+002 1.601228e+002 4.000000e+000
      vertex   -1.288772e+002 1.599947e+002 4.000000e+000
    endloop
  endfacet
  facet normal 0.000000e+000 0.000000e+000 1.000000e+000
    outer loop
      vertex   -1.250000e+002 1.650000e+002 4.000000e+000
      vertex   -1.288772e+002 1.599947e+002 4.000000e+000
      vertex   -1.287655e+002 1.598521e+002 4.000000e+000
    endloop
  endfacet
  facet normal -0.000000e+000 0.000000e+000 1.000000e+000
    outer loop
      vertex   -1.287655e+002 1.598521e+002 4.000000e+000
      vertex   -1.286718e+002 1.596971e+002 4.000000e+000
      vertex   -1.250000e+002 1.650000e+002 4.000000e+000
    endloop
  endfacet
  facet normal 0.000000e+000 0.000000e+000 1.000000e+000
    outer loop
      vertex   -1.250000e+002 1.650000e+002 4.000000e+000
      vertex   -1.286718e+002 1.596971e+002 4.000000e+000
      vertex   -1.285975e+002 1.595319e+002 4.000000e+000
    endloop
  endfacet
  facet normal 0.000000e+000 0.000000e+000 1.000000e+000
    outer loop
      vertex   -1.250000e+002 1.650000e+002 4.000000e+000
      vertex   -1.285975e+002 1.595319e+002 4.000000e+000
      vertex   -1.285436e+002 1.593590e+002 4.000000e+000
    endloop
  endfacet
  facet normal -0.000000e+000 0.000000e+000 1.000000e+000
    outer loop
      vertex   -1.285436e+002 1.593590e+002 4.000000e+000
      vertex   -1.285109e+002 1.591808e+002 4.000000e+000
      vertex   -1.250000e+002 1.650000e+002 4.000000e+000
    endloop
  endfacet
  facet normal 0.000000e+000 0.000000e+000 1.000000e+000
    outer loop
      vertex   -1.250000e+002 1.650000e+002 4.000000e+000
      vertex   -1.285109e+002 1.591808e+002 4.000000e+000
      vertex   -1.285000e+002 1.590000e+002 4.000000e+000
    endloop
  endfacet
endsolid
